HIERARCHY
ROOT Hips
{
	OFFSET -3.958830 18.904000 13.208200
	CHANNELS 6 Xposition Yposition Zposition Zrotation Yrotation Xrotation 
	JOINT LHipJoint
	{
		OFFSET 0.000000 0.000000 0.000000
		CHANNELS 3 Zrotation Yrotation Xrotation
		JOINT LeftUpLeg
		{
			OFFSET 1.800000 -1.400000 0.085000
			CHANNELS 3 Zrotation Yrotation Xrotation
			JOINT LeftLeg
			{
				OFFSET 2.215000 -6.000000 0.000000
				CHANNELS 3 Zrotation Yrotation Xrotation
				JOINT LeftFoot
				{
					OFFSET 2.500000 -6.900000 0.000000
					CHANNELS 3 Zrotation Yrotation Xrotation
					JOINT LeftToeBase
					{
						OFFSET 0.200000 -0.500000 1.950000
						CHANNELS 3 Zrotation Yrotation Xrotation
						End Site
						{
							OFFSET 0.000000 0.000000 0.000000
						}
					}
				}
			}
		}
	}
	JOINT RHipJoint
	{
		OFFSET 0.000000 0.000000 0.000000
		CHANNELS 3 Zrotation Yrotation Xrotation
		JOINT RightUpLeg
		{
			OFFSET -1.800000 -1.400000 0.085000
			CHANNELS 3 Zrotation Yrotation Xrotation
			JOINT RightLeg
			{
				OFFSET -2.215000 -6.000000 0.000000
				CHANNELS 3 Zrotation Yrotation Xrotation
				JOINT RightFoot
				{
					OFFSET -2.500000 -6.900000 0.000000
					CHANNELS 3 Zrotation Yrotation Xrotation
					JOINT RightToeBase
					{
						OFFSET -0.200000 -0.500000 1.950000
						CHANNELS 3 Zrotation Yrotation Xrotation
						End Site
						{
							OFFSET 0.000000 0.000000 0.000000
						}
					}
				}
			}
		}
	}
	JOINT LowerBack
	{
		OFFSET 0.000000 0.000000 0.000000
		CHANNELS 3 Zrotation Yrotation Xrotation
		JOINT Spine
		{
			OFFSET -0.087000 1.940000 -0.288900
			CHANNELS 3 Zrotation Yrotation Xrotation
			JOINT Spine1
			{
				OFFSET 0.000000 1.950000 0.060000
				CHANNELS 3 Zrotation Yrotation Xrotation
				JOINT Neck
				{
					OFFSET 0.000000 0.000000 0.000000
					CHANNELS 3 Zrotation Yrotation Xrotation
					JOINT Neck1
					{
						OFFSET 0.000000 1.600000 0.340000
						CHANNELS 3 Zrotation Yrotation Xrotation
						JOINT Head
						{
							OFFSET 0.000000 1.667000 -0.240000
							CHANNELS 3 Zrotation Yrotation Xrotation
							End Site
							{
								OFFSET 0.000000 0.000000 0.000000
							}
						}
					}
				}
				JOINT LeftShoulder
				{
					OFFSET 0.000000 0.000000 0.000000
					CHANNELS 3 Zrotation Yrotation Xrotation
					JOINT LeftArm
					{
						OFFSET 2.700000 1.550000 -0.730000
						CHANNELS 3 Zrotation Yrotation Xrotation
						JOINT LeftForeArm
						{
							OFFSET 5.450000 0.000000 0.000000
							CHANNELS 3 Zrotation Yrotation Xrotation
							JOINT LeftHand
							{
								OFFSET 3.450000 0.000000 0.000000
								CHANNELS 3 Zrotation Yrotation Xrotation
								JOINT LeftHandIndex1
								{
									OFFSET 0.750000 0.000000 0.000000
									CHANNELS 3 Zrotation Yrotation Xrotation
									End Site
									{
										OFFSET 0.000000 0.000000 0.000000
									}
								}
							}
						}
					}
				}
				JOINT RightShoulder
				{
					OFFSET 0.000000 0.000000 0.000000
					CHANNELS 3 Zrotation Yrotation Xrotation
					JOINT RightArm
					{
						OFFSET -2.700000 1.550000 -0.730000
						CHANNELS 3 Zrotation Yrotation Xrotation
						JOINT RightForeArm
						{
							OFFSET -5.450000 0.000000 0.000000
							CHANNELS 3 Zrotation Yrotation Xrotation
							JOINT RightHand
							{
								OFFSET -3.450000 0.000000 0.000000
								CHANNELS 3 Zrotation Yrotation Xrotation
								JOINT RightHandIndex1
								{
									OFFSET -0.750000 0.000000 0.000000
									CHANNELS 3 Zrotation Yrotation Xrotation
									End Site
									{
										OFFSET 0.000000 0.000000 0.000000
									}
								}
							}
						}
					}
				}
			}
		}
	}
}
MOTION
Frames: 12
Frame Time: 0.016667
-1.088530 17.351770 -3.697530 0.621183 1.372585 -10.118440 -15.375863 12.590620 3.674601 -8.738625 -4.417784 -2.327220 -11.714625 16.363370 50.209113 0.965289 11.292956 1.017957 0.012220 -0.334720 -0.091980 18.297200 -8.997639 3.888123 -5.137244 8.220546 -29.672459 26.923967 -18.697751 40.221789 -1.621659 -8.494198 1.363335 -0.212080 0.651900 0.660110 -3.378354 -3.189520 -8.693590 14.153511 -6.698378 42.047729 -3.828975 -3.129030 3.305376 3.007110 -1.999343 -9.204216 -4.611957 -0.228134 29.578304 -6.860540 2.060280 -28.213970 -7.112530 0.299577 2.072747 -31.004875 0.113712 -7.807662 -165.908917 -76.948595 152.146059 -3.710477 3.082065 1.047930 0.190070 0.255910 0.285130 0.839276 1.589690 5.308914 53.209946 6.364444 -9.112047 91.679195 83.150807 63.058679 3.882000 2.378661 -0.397600 0.434650 0.366740 -0.070960 
-1.088790 17.293930 -3.699360 0.898242 1.001297 -11.022126 -15.411177 12.594086 3.720472 -9.295783 -4.321230 -1.577321 -11.940286 16.771234 50.797358 1.012856 11.478183 0.950178 0.035950 -0.308470 -0.081630 18.274934 -8.932180 3.867065 -5.107952 8.336315 -29.364844 26.763500 -18.878457 40.986703 -1.666816 -8.630605 1.304697 -0.197550 0.637470 0.685950 -3.296152 -3.330573 -8.725590 13.473149 -6.160540 43.347619 -3.107708 -2.803211 3.957447 2.849934 -1.941575 -9.164312 -4.530474 0.008302 29.588617 -6.980620 2.311120 -29.013530 -6.716013 0.024539 1.923772 -29.197051 -0.715832 -7.467448 -171.498848 -76.223042 158.652160 -3.722596 3.162305 1.052360 0.186300 0.270860 0.283760 0.854272 1.993918 5.195469 51.808255 5.630686 -15.986778 108.689707 76.735968 78.303774 3.035448 2.100353 -0.379680 0.416900 0.368640 -0.072650 
-1.081380 17.107930 -3.709770 1.152656 0.208006 -12.604981 -15.477582 12.501122 3.813567 -10.385920 -4.401809 -0.517372 -13.111431 18.192174 52.516506 1.116154 12.036558 0.785839 0.129450 -0.183890 -0.014970 18.259411 -8.738330 3.858687 -4.614895 8.879518 -29.382814 26.604408 -19.523781 43.111573 -1.790501 -9.034987 1.175774 -0.098680 0.627610 0.686970 -3.177696 -3.528965 -8.742371 12.833543 -5.595249 46.940590 -2.251391 -2.364033 3.779287 2.516417 -1.851341 -8.071216 -3.815900 0.338722 26.485745 -7.631350 3.000380 -32.015800 -6.649241 1.690238 0.186742 -21.852586 -1.771487 -5.898437 -179.789874 -72.580138 169.363360 -3.747092 3.270793 1.057900 0.193010 0.287150 0.307290 1.491896 0.476646 4.939635 47.454181 4.165322 -15.448159 145.519634 71.892497 121.431056 1.586442 -0.929610 -0.390860 0.446290 0.320490 -0.081600 
-1.060110 16.861920 -3.727430 1.288650 -0.174875 -13.713484 -15.565950 12.365264 3.875437 -11.636770 -4.687385 -0.063091 -13.795032 19.566577 54.921453 1.199835 12.641572 0.580426 0.231140 -0.060290 0.074370 18.238553 -8.393053 3.979403 -4.977437 9.853341 -30.706426 27.955352 -21.334737 46.076257 -2.010068 -9.829321 0.911358 0.006520 0.594810 0.703430 -3.024696 -3.834781 -8.815417 12.668029 -4.919557 49.556110 -1.480552 -1.834707 4.046448 2.584255 -1.432869 -6.987974 -2.688761 -0.071014 23.766634 -8.952940 3.432170 -34.514540 -7.237801 2.973355 -1.707139 -13.416361 -3.619103 -4.324987 166.206716 -66.484659 -169.572100 -3.821275 3.369270 1.058920 0.203020 0.303240 0.308310 1.924771 -0.908259 4.730247 41.895985 3.152613 -11.905207 172.101937 65.343722 152.642991 1.505616 -1.642505 -0.393370 0.448250 0.282750 -0.108420 
-1.040760 16.642240 -3.765470 1.565365 -0.252512 -15.678725 -15.659561 12.323913 3.927312 -12.522574 -4.689861 1.358534 -14.630007 20.903016 56.479670 1.266116 13.137192 0.430330 0.296040 0.023860 0.151610 18.196293 -8.068291 4.065306 -5.835748 10.579962 -31.205552 29.603404 -23.392132 48.886045 -2.235073 -10.636321 0.670308 0.086550 0.571500 0.684600 -2.836412 -4.272765 -8.881911 12.386816 -4.475800 53.986075 -1.219733 -1.514457 3.176570 2.925887 -1.234413 -5.907948 -1.991451 -1.074212 21.335674 -9.930560 2.947720 -36.989770 -8.755474 4.045651 -3.927723 -4.762345 -4.247255 -4.167775 157.238839 -63.962731 -153.895355 -3.875777 3.333483 1.078110 0.200110 0.315830 0.300270 2.694172 -1.892065 4.883415 36.522860 0.892297 -10.171487 -175.956097 57.778476 169.111175 1.542776 -1.825751 -0.422400 0.487390 0.253620 -0.135360 
-1.023650 16.430370 -3.806540 2.269304 0.633564 -16.909364 -15.767781 12.279022 3.964673 -13.837246 -4.806193 2.001057 -14.223427 21.791123 59.040952 1.354905 13.672092 0.285481 0.278990 -0.000810 0.164030 18.141724 -7.665060 4.232762 -8.041154 11.272976 -32.942720 32.210570 -25.876701 51.254629 -2.433597 -11.506633 0.421940 0.103440 0.600830 0.694020 -2.606467 -4.798924 -8.993504 11.819455 -3.688761 57.434204 -0.795606 -1.057238 1.493773 3.383156 -0.328678 -4.957205 -0.345443 -2.162429 19.659906 -11.129200 2.665100 -36.843810 -11.437860 3.863155 -5.846514 5.328818 -3.783516 -4.263793 150.615991 -61.516610 -140.690439 -4.000481 3.279092 1.062460 0.246020 0.284060 0.278780 4.463505 -2.132394 5.132853 31.382499 -1.364445 -9.340439 -166.725630 50.304073 -172.842492 1.594854 -1.873663 -0.454230 0.501480 0.281360 -0.157730 
-1.010240 16.268030 -3.835760 2.622311 1.382967 -18.027704 -15.817760 12.248047 3.972025 -14.340155 -4.764117 3.032587 -14.176179 22.425700 60.332547 1.497809 13.953548 0.214971 0.264180 -0.006250 0.145600 18.121181 -7.426202 4.350478 -9.795449 11.516438 -33.909891 34.305647 -27.904846 52.777514 -2.591813 -12.130990 0.247753 0.082960 0.594190 0.742190 -2.505728 -5.103319 -9.063052 11.825669 -3.650370 59.676769 -0.909112 -1.339932 1.024690 3.680639 0.119756 -4.637253 0.320242 -1.724742 19.271076 -12.266240 3.306200 -36.420660 -12.933462 2.823547 -6.506367 11.765068 -3.088415 -4.916433 145.137002 -59.217219 -129.706606 -4.072012 3.265375 1.008520 0.270370 0.287170 0.273790 5.455383 -1.651441 5.320704 29.528403 -2.509671 -9.592667 -161.869047 45.795024 -160.787138 1.644550 -1.898223 -0.403570 0.440410 0.286420 -0.139500 
-1.015300 16.158070 -3.838370 3.237089 2.143357 -18.339792 -15.864104 12.229660 3.980063 -14.003946 -4.857909 3.610025 -15.613649 23.495086 60.173213 1.641734 14.154282 0.191241 0.205130 -0.054290 0.069500 18.092741 -7.249399 4.446395 -11.307591 11.442102 -34.906272 35.644142 -29.355932 53.780962 -2.687962 -12.521068 0.181783 0.028130 0.614870 0.758350 -2.395303 -5.351030 -9.146001 10.980762 -2.944701 59.290501 0.145600 -1.263996 2.651036 3.285018 0.422584 -5.258482 0.478658 -2.495042 20.781797 -12.169300 2.890360 -35.605770 -12.772307 1.052219 -5.715119 13.110048 -1.697639 -5.681182 141.709228 -57.113100 -122.885363 -4.080756 3.201954 0.976520 0.284960 0.284820 0.284120 6.043360 -0.063482 5.989928 29.700310 -4.283370 -10.788402 -159.620045 43.562555 -155.724109 1.667011 -1.855919 -0.373790 0.422490 0.306950 -0.106270 
-1.011100 16.141420 -3.837170 3.647499 2.176408 -19.770467 -15.836950 12.252079 3.985632 -13.585763 -4.196016 5.422043 -16.553517 23.873322 58.817533 1.778563 14.071021 0.277631 0.086250 -0.147640 -0.059790 18.101206 -7.363444 4.393690 -11.682006 11.227271 -33.396076 35.806951 -29.529045 53.844010 -2.679102 -12.536985 0.235251 -0.070700 0.661210 0.749580 -2.450686 -5.217533 -9.134256 11.217814 -3.197160 59.977539 -0.327760 -1.770385 4.734325 3.084788 0.163658 -6.549402 -0.135726 -2.929554 22.540847 -11.691170 2.178840 -34.422460 -11.713641 -1.546536 -4.066705 11.858180 0.252063 -6.999368 140.335887 -57.058409 -122.215142 -4.054450 3.163799 0.925070 0.296760 0.273170 0.293760 5.294219 2.660132 6.952345 32.688504 -3.221484 -12.112546 -157.205203 41.731569 -150.739190 1.711536 -1.755881 -0.344990 0.426910 0.343880 -0.045090 
-1.012430 16.165100 -3.803720 3.913009 1.312532 -20.734557 -15.762299 12.215088 3.962354 -12.862520 -3.301709 7.022377 -17.795812 24.239245 56.789222 1.831893 13.925995 0.367243 -0.008590 -0.237310 -0.169900 18.151033 -7.552123 4.379331 -11.704189 11.345036 -32.098216 35.660134 -29.556507 54.123547 -2.675663 -12.527092 0.301201 -0.151620 0.711650 0.714200 -2.633283 -4.823643 -9.126815 11.817510 -3.577887 58.998816 -1.116763 -2.245253 7.275356 2.600761 -1.061530 -7.901888 -2.560365 -3.160507 25.453370 -9.899260 0.434780 -33.391730 -10.174818 -4.006023 -2.056136 8.225771 1.458775 -8.025660 139.135350 -59.575131 -124.699396 -4.015048 3.093899 0.920190 0.286560 0.256660 0.302310 4.657451 5.836798 7.789737 34.750447 -1.862318 -13.469452 -155.868108 42.721762 -150.411294 1.724240 -1.628174 -0.346450 0.481380 0.392120 -0.001470 
-1.016570 16.249010 -3.758780 3.615374 0.208957 -21.168880 -15.665952 12.227004 3.916227 -11.618308 -2.554113 8.076109 -18.430969 24.182299 54.921781 1.861826 13.674869 0.460473 -0.057840 -0.285350 -0.237250 18.208301 -7.823552 4.318656 -10.650176 11.469899 -30.336682 34.926671 -28.727685 53.478762 -2.616566 -12.258893 0.408744 -0.218610 0.714630 0.689800 -2.854233 -4.374646 -9.079009 12.869956 -4.440082 57.592233 -2.332710 -2.700324 8.903647 2.475464 -2.479905 -9.315309 -5.385949 -2.884932 27.987812 -8.196440 -0.839250 -32.435780 -9.227489 -6.259087 0.005853 3.549428 3.266002 -9.066698 139.895982 -60.665251 -128.735597 -3.938669 3.100672 0.915680 0.251360 0.257960 0.309020 4.014625 8.885710 8.746472 36.098673 -1.387196 -14.858404 -155.518180 45.575826 -153.569821 1.754422 -1.561852 -0.320030 0.483910 0.405770 0.035540 
-1.029710 16.377420 -3.690540 3.237430 -0.592349 -20.836828 -15.596535 12.325399 3.877526 -10.737347 -1.901983 8.859092 -17.951108 23.227070 53.064227 1.784521 13.292829 0.567928 -0.087320 -0.338680 -0.266700 18.234962 -8.098645 4.199292 -9.322989 11.172443 -28.442344 33.258186 -27.252313 52.428756 -2.506307 -11.814885 0.530729 -0.266200 0.717330 0.682780 -2.989872 -4.110022 -9.009243 13.295358 -4.799167 54.617110 -2.826157 -2.734619 10.451256 2.445081 -3.525047 -10.504666 -7.874590 -1.882385 30.933854 -6.860040 -1.339130 -30.903940 -7.662039 -7.021145 1.733841 -3.917058 2.601160 -9.457914 141.446469 -62.882759 -134.727422 -3.904222 3.087963 0.941330 0.222910 0.262700 0.304680 2.628660 10.287218 9.301201 38.923079 -0.987615 -16.088819 -156.642186 51.168483 -160.258824 1.747788 -1.535611 -0.314780 0.489100 0.429450 0.044150 
